HIERARCHY
ROOT reference
{
  OFFSET 0 0 0
  CHANNELS 6 Xposition Yposition Zposition Zrotation Xrotation Yrotation
  JOINT Hips
  {
    OFFSET 352.076 86.5813 226.294
    CHANNELS 3 Zrotation Xrotation Yrotation
    JOINT RightUpLeg
    {
      OFFSET -9.24446 -1.53332 -0.0100408
      CHANNELS 3 Zrotation Xrotation Yrotation
      JOINT RightLeg
      {
        OFFSET 0.0379954 -41.8775 0.0555708
        CHANNELS 3 Zrotation Xrotation Yrotation
        JOINT RightFoot
        {
          OFFSET 0.0737403 -43.7597 -0.208372
          CHANNELS 3 Zrotation Xrotation Yrotation
          End Site
          {
            OFFSET 0 -7.69 17.5
          }
        }
      }
    }
    JOINT LeftUpLeg
    {
      OFFSET 9.31004 -1.65148 -0.0333589
      CHANNELS 3 Zrotation Xrotation Yrotation
      JOINT LeftLeg
      {
        OFFSET 0.0881386 -41.8624 -0.0616493
        CHANNELS 3 Zrotation Xrotation Yrotation
        JOINT LeftFoot
        {
          OFFSET 0.763074 -39.9619 0.249975
          CHANNELS 3 Zrotation Xrotation Yrotation
          End Site
          {
            OFFSET 0 -7.69 17.5
          }
        }
      }
    }
    JOINT Spine
    {
      OFFSET 0.105097 14.2958 0.096313
      CHANNELS 3 Zrotation Xrotation Yrotation
      JOINT Spine1
      {
        OFFSET 0.0609256 9.72986 0.0283835
        CHANNELS 3 Zrotation Xrotation Yrotation
        JOINT Spine2
        {
          OFFSET 0.0349843 10.1145 -0.0203086
          CHANNELS 3 Zrotation Xrotation Yrotation
          JOINT Spine3
          {
            OFFSET 0.0323734 9.71864 0.0196425
            CHANNELS 3 Zrotation Xrotation Yrotation
            JOINT Neck
            {
              OFFSET 0.219168 10.3708 0.0833364
              CHANNELS 3 Zrotation Xrotation Yrotation
              JOINT Head
              {
                OFFSET 0.200748 9.48753 0.0966912
                CHANNELS 3 Zrotation Xrotation Yrotation
                End Site
                {
                  OFFSET 0 15.95 0
                }
              }
            }
            JOINT RightShoulder
            {
              OFFSET -3.14734 6.94135 0.063802
              CHANNELS 3 Zrotation Xrotation Yrotation
              JOINT RightArm
              {
                OFFSET -12.765 0.137663 0.228635
                CHANNELS 3 Zrotation Xrotation Yrotation
                JOINT RightForeArm
                {
                  OFFSET -26.5344 -0.389186 -0.00603507
                  CHANNELS 3 Zrotation Xrotation Yrotation
                  JOINT RightHand
                  {
                    OFFSET -26.1352 -0.0585664 0.0704552
                    CHANNELS 3 Zrotation Xrotation Yrotation
                    JOINT RightHandThumb1
                    {
                      OFFSET -2.48905 0.190105 3.12053
                      CHANNELS 3 Zrotation Xrotation Yrotation
                      JOINT RightHandThumb2
                      {
                        OFFSET -3.68274 0 0
                        CHANNELS 3 Zrotation Xrotation Yrotation
                        JOINT RightHandThumb3
                        {
                          OFFSET -2.55832 0 0
                          CHANNELS 3 Zrotation Xrotation Yrotation
                          End Site
                          {
                            OFFSET -2.194 0 0
                          }
                        }
                      }
                    }
                    JOINT RightInHandIndex
                    {
                      OFFSET -3.22368 0.508421 1.97842
                      CHANNELS 3 Zrotation Xrotation Yrotation
                      JOINT RightHandIndex1
                      {
                        OFFSET -5.21684 -0.091368 0.999158
                        CHANNELS 3 Zrotation Xrotation Yrotation
                        JOINT RightHandIndex2
                        {
                          OFFSET -3.61937 0 0
                          CHANNELS 3 Zrotation Xrotation Yrotation
                          JOINT RightHandIndex3
                          {
                            OFFSET -2.0521 0 0
                            CHANNELS 3 Zrotation Xrotation Yrotation
                            End Site
                            {
                              OFFSET -1.805 0 0
                            }
                          }
                        }
                      }
                    }
                    JOINT RightInHandMiddle
                    {
                      OFFSET -3.38211 0.517263 0.756737
                      CHANNELS 3 Zrotation Xrotation Yrotation
                      JOINT RightHandMiddle1
                      {
                        OFFSET -5.17411 -0.084 0.313895
                        CHANNELS 3 Zrotation Xrotation Yrotation
                        JOINT RightHandMiddle2
                        {
                          OFFSET -3.94947 0 0
                          CHANNELS 3 Zrotation Xrotation Yrotation
                          JOINT RightHandMiddle3
                          {
                            OFFSET -2.47579 0 0
                            CHANNELS 3 Zrotation Xrotation Yrotation
                            End Site
                            {
                              OFFSET -1.975 0 0
                            }
                          }
                        }
                      }
                    }
                    JOINT RightInHandRing
                    {
                      OFFSET -3.36516 0.537895 -0.128947
                      CHANNELS 3 Zrotation Xrotation Yrotation
                      JOINT RightHandRing1
                      {
                        OFFSET -4.63474 -0.022105 -0.478947
                        CHANNELS 3 Zrotation Xrotation Yrotation
                        JOINT RightHandRing2
                        {
                          OFFSET -3.44238 0 0
                          CHANNELS 3 Zrotation Xrotation Yrotation
                          JOINT RightHandRing3
                          {
                            OFFSET -2.3881 0 0
                            CHANNELS 3 Zrotation Xrotation Yrotation
                            End Site
                            {
                              OFFSET -1.857 0 0
                            }
                          }
                        }
                      }
                    }
                    JOINT RightInHandPinky
                    {
                      OFFSET -3.16105 0.469368 -1.20179
                      CHANNELS 3 Zrotation Xrotation Yrotation
                      JOINT RightHandPinky1
                      {
                        OFFSET -4.14105 -0.022105 -1.09053
                        CHANNELS 3 Zrotation Xrotation Yrotation
                        JOINT RightHandPinky2
                        {
                          OFFSET -2.75653 0 0
                          CHANNELS 3 Zrotation Xrotation Yrotation
                          JOINT RightHandPinky3
                          {
                            OFFSET -1.74189 0 0
                            CHANNELS 3 Zrotation Xrotation Yrotation
                            End Site
                            {
                              OFFSET -1.645 0 0
                            }
                          }
                        }
                      }
                    }
                  }
                }
              }
            }
            JOINT LeftShoulder
            {
              OFFSET 3.26179 6.89719 -0.0373062
              CHANNELS 3 Zrotation Xrotation Yrotation
              JOINT LeftArm
              {
                OFFSET 12.4839 0.0196156 -0.0323257
                CHANNELS 3 Zrotation Xrotation Yrotation
                JOINT LeftForeArm
                {
                  OFFSET 26.5039 -0.120667 0.247609
                  CHANNELS 3 Zrotation Xrotation Yrotation
                  JOINT LeftHand
                  {
                    OFFSET 25.9984 -0.032285 0.00286418
                    CHANNELS 3 Zrotation Xrotation Yrotation
                    JOINT LeftHandThumb1
                    {
                      OFFSET 2.48905 0.190105 3.12053
                      CHANNELS 3 Zrotation Xrotation Yrotation
                      JOINT LeftHandThumb2
                      {
                        OFFSET 3.68274 0 0
                        CHANNELS 3 Zrotation Xrotation Yrotation
                        JOINT LeftHandThumb3
                        {
                          OFFSET 2.55832 0 0
                          CHANNELS 3 Zrotation Xrotation Yrotation
                          End Site
                          {
                            OFFSET 2.194 0 0
                          }
                        }
                      }
                    }
                    JOINT LeftInHandIndex
                    {
                      OFFSET 3.22368 0.508421 1.97842
                      CHANNELS 3 Zrotation Xrotation Yrotation
                      JOINT LeftHandIndex1
                      {
                        OFFSET 5.21684 -0.091368 0.999158
                        CHANNELS 3 Zrotation Xrotation Yrotation
                        JOINT LeftHandIndex2
                        {
                          OFFSET 3.61937 0 0
                          CHANNELS 3 Zrotation Xrotation Yrotation
                          JOINT LeftHandIndex3
                          {
                            OFFSET 2.0521 0 0
                            CHANNELS 3 Zrotation Xrotation Yrotation
                            End Site
                            {
                              OFFSET 1.805 0 0
                            }
                          }
                        }
                      }
                    }
                    JOINT LeftInHandMiddle
                    {
                      OFFSET 3.38211 0.517263 0.756737
                      CHANNELS 3 Zrotation Xrotation Yrotation
                      JOINT LeftHandMiddle1
                      {
                        OFFSET 5.17411 -0.084 0.313895
                        CHANNELS 3 Zrotation Xrotation Yrotation
                        JOINT LeftHandMiddle2
                        {
                          OFFSET 3.94947 0 0
                          CHANNELS 3 Zrotation Xrotation Yrotation
                          JOINT LeftHandMiddle3
                          {
                            OFFSET 2.47579 0 0
                            CHANNELS 3 Zrotation Xrotation Yrotation
                            End Site
                            {
                              OFFSET 1.975 0 0
                            }
                          }
                        }
                      }
                    }
                    JOINT LeftInHandRing
                    {
                      OFFSET 3.36516 0.537895 -0.128947
                      CHANNELS 3 Zrotation Xrotation Yrotation
                      JOINT LeftHandRing1
                      {
                        OFFSET 4.63474 -0.022105 -0.478947
                        CHANNELS 3 Zrotation Xrotation Yrotation
                        JOINT LeftHandRing2
                        {
                          OFFSET 3.44238 0 0
                          CHANNELS 3 Zrotation Xrotation Yrotation
                          JOINT LeftHandRing3
                          {
                            OFFSET 2.3881 0 0
                            CHANNELS 3 Zrotation Xrotation Yrotation
                            End Site
                            {
                              OFFSET 1.857 0 0
                            }
                          }
                        }
                      }
                    }
                    JOINT LeftInHandPinky
                    {
                      OFFSET 3.16105 0.469368 -1.20179
                      CHANNELS 3 Zrotation Xrotation Yrotation
                      JOINT LeftHandPinky1
                      {
                        OFFSET 4.14105 -0.022105 -1.09053
                        CHANNELS 3 Zrotation Xrotation Yrotation
                        JOINT LeftHandPinky2
                        {
                          OFFSET 2.75653 0 0
                          CHANNELS 3 Zrotation Xrotation Yrotation
                          JOINT LeftHandPinky3
                          {
                            OFFSET 1.74189 0 0
                            CHANNELS 3 Zrotation Xrotation Yrotation
                            End Site
                            {
                              OFFSET 1.645 0 0
                            }
                          }
                        }
                      }
                    }
                  }
                }
              }
            }
          }
        }
      }
    }
  }
}
MOTION
Frames: 2
Frame Time: 0.00833333
3.150000000000000000e+03 0.000000000000000000e+00 0.000000000000000000e+00 0.000000000000000000e+00 0.000000000000000000e+00 0.000000000000000000e+00 2.470340000000000202e+01 7.807200000000002582e+00 -1.203969999999999914e+02 3.107979999999999876e+01 -4.857679999999999865e+01 2.759489999999999554e+01 -8.741070000000000562e+00 1.609339999999999549e+01 1.246970000000001022e+00 1.672239999999999682e+01 1.370049999999999812e+01 3.517360000000000753e+01 4.011440000000000339e+01 -2.079089999999999350e+01 2.707009999999999650e+01 -1.716799999999999926e+01 4.682169999999999277e+01 1.917399999999999949e+01 -6.263560000000000016e+00 -2.860320000000000107e+01 -5.326249999999998153e+00 -4.783190000000000275e+00 -1.179790000000000116e+00 -1.172850000000000037e+01 -1.175629999999999953e+00 -5.048939999999999539e-01 -2.914420000000000677e+00 -1.957789999999999919e+00 -9.090309999999999224e-01 -4.768740000000001089e+00 -4.719280000000000141e-01 -1.396170000000000189e-01 2.716780000000000417e+00 -9.982630000000001225e-01 -2.459900000000000198e+00 3.624269999999999214e+01 -8.212300000000002598e+00 7.771529999999999383e+00 2.866629999999999612e+01 8.936299999999999244e+00 4.729859999999998621e+00 -4.623530000000000584e+00 5.133229999999999649e+01 -5.609789999999999566e+01 6.716279999999997585e+00 1.831169999999999476e+01 -7.326489999999999725e+00 1.272160000000000082e+02 1.136789999999999878e+01 -2.639839999999999520e+01 8.170249999999999346e+00 2.818400000000000105e+01 1.072940000000000005e+01 1.915919999999999845e+01 -1.200699999999999809e-14 4.472660000000005905e-16 -1.000000000000000000e+01 -2.412490000000000356e-14 -5.218099999999996971e-16 -1.000000000000000000e+01 -9.939229999999992495e-16 0.000000000000000000e+00 3.975690000000000513e-16 1.998179999999999978e+01 8.718970000000000331e-01 2.396399999999999864e+00 2.400000000000000000e+01 6.361109999999999741e-15 2.067360000000000366e-14 2.000000000000000000e+01 -7.951390000000003171e-16 -1.272220000000000151e-14 -9.939229999999992495e-16 0.000000000000000000e+00 3.975690000000000513e-16 2.000000000000000000e+01 7.951389999999999226e-15 9.044700000000001209e-15 2.400000000000000000e+01 -3.180550000000000771e-15 2.385419999999999859e-14 2.000000000000000000e+01 -1.431249999999999897e-14 -1.272219999999999993e-14 -9.939229999999992495e-16 0.000000000000000000e+00 3.975690000000000513e-16 1.997479999999999833e+01 -1.025649999999999951e+00 -2.819380000000000219e+00 2.400000000000000000e+01 1.272219999999999993e-14 2.623959999999999037e-14 2.000000000000000000e+01 -1.590280000000000668e-15 -7.951389999999999226e-15 -9.939229999999992495e-16 0.000000000000000000e+00 3.975690000000000513e-16 1.978150000000000119e+01 -3.009479999999999933e+00 -8.305149999999999366e+00 2.400000000000000000e+01 9.541660000000002090e-15 2.365539999999999859e-14 2.000000000000000000e+01 6.361109999999998163e-15 -1.590280000000000274e-15 1.327729999999999677e+01 -1.766000000000000014e+01 -5.033969999999999345e+01 -1.568590000000000373e+01 2.619190000000000396e+01 -1.145329999999999870e+02 3.034859999999999758e+01 -9.257239999999999469e+00 -3.452980000000000160e+01 -3.208440000000000225e+01 -8.113129999999998176e+00 -1.622680000000000433e+01 -2.818400000000000105e+01 1.072940000000000005e+01 -1.915919999999999845e+01 -1.625990000000000217e-15 -7.951389999999999226e-16 1.000000000000000000e+01 4.121170000000001449e-15 -1.192710000000000797e-15 1.000000000000000000e+01 4.969620000000000475e-15 7.951389999999999226e-16 1.590280000000000274e-15 -1.998179999999999978e+01 8.718970000000000331e-01 -2.396399999999999864e+00 -2.400000000000000000e+01 -4.770829999999999467e-15 1.908329999999999831e-14 -2.000000000000000000e+01 -3.180549999999999587e-15 1.192709999999999929e-14 4.969620000000000475e-15 7.951389999999999226e-16 1.590280000000000274e-15 -2.000000000000000000e+01 -3.180549999999999193e-15 1.590280000000000116e-14 -2.400000000000000000e+01 -3.180549999999999982e-15 1.298310000000000225e-14 -2.000000000000000000e+01 0.000000000000000000e+00 7.951389999999999226e-15 4.969620000000000475e-15 7.951389999999999226e-16 1.590280000000000274e-15 -1.997479999999999833e+01 -1.025649999999999951e+00 2.819380000000000219e+00 -2.400000000000000000e+01 -7.951389999999999226e-15 1.510759999999999802e-14 -2.000000000000000000e+01 -4.770830000000000256e-15 1.232459999999999994e-14 4.969620000000000475e-15 7.951389999999999226e-16 1.590280000000000274e-15 -1.978150000000000119e+01 -3.009479999999999933e+00 8.305149999999999366e+00 -2.400000000000000000e+01 -3.180549999999999193e-15 1.908330000000000462e-14 -2.000000000000000000e+01 0.000000000000000000e+00 1.346769999999999912e-14
3.150000000000000000e+03 0.000000000000000000e+00 0.000000000000000000e+00 0.000000000000000000e+00 0.000000000000000000e+00 0.000000000000000000e+00 2.506319999999999482e+01 7.954489999999999839e+00 -1.196090000000000089e+02 3.071669999999999945e+01 -4.918110000000000070e+01 2.721280000000000143e+01 -8.608150000000001967e+00 1.614240000000000208e+01 6.971280000000010801e-01 1.665700000000000358e+01 1.371870000000000189e+01 3.520740000000000691e+01 4.022220000000000795e+01 -2.166890000000000427e+01 2.695079999999999742e+01 -1.670110000000000383e+01 4.708200000000000784e+01 1.865720000000000312e+01 -6.263860000000000205e+00 -2.853519999999999612e+01 -5.329579999999999984e+00 -4.683880000000000265e+00 -1.106689999999999952e+00 -1.180240000000000045e+01 -1.152050000000000018e+00 -4.837659999999999183e-01 -2.935850000000000293e+00 -1.918390000000000040e+00 -8.734229999999998384e-01 -4.804280000000000328e+00 -4.682829999999999493e-01 -1.420059999999999933e-01 2.708829999999999849e+00 -1.009540000000000104e+00 -2.457009999999999472e+00 3.567310000000000514e+01 -8.177419999999999689e+00 7.501890000000001280e+00 2.890829999999999700e+01 8.970800000000002328e+00 4.470939999999998804e+00 -4.561949999999999505e+00 5.211019999999999897e+01 -5.515979999999999706e+01 6.966990000000002681e+00 1.813379999999999725e+01 -7.180319999999999148e+00 1.264409999999999883e+02 1.111980000000000146e+01 -2.650669999999999504e+01 8.817170000000004393e+00 2.818400000000000105e+01 1.072940000000000005e+01 1.915919999999999845e+01 -8.113060000000000924e-15 6.361109999999998952e-15 -1.000000000000000000e+01 -1.048259999999999880e-14 9.342879999999998493e-15 -1.000000000000000000e+01 6.957460000000002420e-16 0.000000000000000000e+00 -7.951389999999997254e-16 1.998179999999999978e+01 8.718970000000000331e-01 2.396399999999999864e+00 2.400000000000000000e+01 4.770830000000001834e-15 2.067360000000000051e-14 2.000000000000000000e+01 -3.180550000000000376e-15 -9.541660000000000512e-15 6.957460000000002420e-16 0.000000000000000000e+00 -7.951389999999997254e-16 2.000000000000000000e+01 4.770830000000000256e-15 7.454429999999999923e-15 2.400000000000000000e+01 -4.770830000000001045e-15 2.464930000000000080e-14 2.000000000000000000e+01 -9.541659999999997356e-15 -1.113189999999999773e-14 6.957460000000002420e-16 0.000000000000000000e+00 -7.951389999999997254e-16 1.997479999999999833e+01 -1.025649999999999951e+00 -2.819380000000000219e+00 2.400000000000000000e+01 4.770830000000001834e-15 2.703470000000000205e-14 2.000000000000000000e+01 1.590280000000000274e-15 -6.361110000000000530e-15 6.957460000000002420e-16 0.000000000000000000e+00 -7.951389999999997254e-16 1.978150000000000119e+01 -3.009479999999999933e+00 -8.305149999999999366e+00 2.400000000000000000e+01 9.541660000000002090e-15 2.415230000000000239e-14 2.000000000000000000e+01 9.541660000000000512e-15 0.000000000000000000e+00 1.334299999999999997e+01 -1.780959999999999610e+01 -5.026300000000001234e+01 -1.577000000000000313e+01 2.647660000000000480e+01 -1.145109999999999957e+02 3.007920000000000016e+01 -9.010339999999999350e+00 -3.359620000000000317e+01 -3.218409999999999371e+01 -8.152399999999998315e+00 -1.617040000000000433e+01 -2.818400000000000105e+01 1.072940000000000005e+01 -1.915919999999999845e+01 1.625479999999998164e-15 -4.174479999999999943e-15 1.000000000000000000e+01 1.150349999999999927e-14 -3.279949999999999191e-15 1.000000000000000000e+01 1.192709999999999219e-15 1.590280000000000077e-15 0.000000000000000000e+00 -1.998179999999999978e+01 8.718970000000000331e-01 -2.396399999999999864e+00 -2.400000000000000000e+01 -3.180550000000000376e-15 1.729430000000000021e-14 -2.000000000000000000e+01 -3.180549999999999982e-15 1.033679999999999868e-14 1.192709999999999219e-15 1.590280000000000077e-15 0.000000000000000000e+00 -2.000000000000000000e+01 0.000000000000000000e+00 1.590280000000000116e-14 -2.400000000000000000e+01 -3.180549999999999982e-15 1.346769999999999912e-14 -2.000000000000000000e+01 0.000000000000000000e+00 1.033680000000000025e-14 1.192709999999999219e-15 1.590280000000000077e-15 0.000000000000000000e+00 -1.997479999999999833e+01 -1.025649999999999951e+00 2.819380000000000219e+00 -2.400000000000000000e+01 -4.770829999999999467e-15 1.073439999999999867e-14 -2.000000000000000000e+01 -1.590279999999999880e-15 1.232459999999999994e-14 1.192709999999999219e-15 1.590280000000000077e-15 0.000000000000000000e+00 -1.978150000000000119e+01 -3.009479999999999933e+00 8.305149999999999366e+00 -2.400000000000000000e+01 0.000000000000000000e+00 1.828819999999999926e-14 -2.000000000000000000e+01 -3.180549999999999982e-15 1.805209999999999686e-14
